<?xml version="1.0" standalone="no"?>
<!DOCTYPE svg PUBLIC "-//W3C//DTD SVG 20010904//EN"
 "http://www.w3.org/TR/2001/REC-SVG-20010904/DTD/svg10.dtd">
<svg version="1.0" xmlns="http://www.w3.org/2000/svg"
 width="626.000000pt" height="626.000000pt" viewBox="0 0 626.000000 626.000000"
 preserveAspectRatio="xMidYMid meet">

<g transform="translate(0.000000,626.000000) scale(0.100000,-0.100000)"
fill="#000000" stroke="none">
<path d="M0 3130 l0 -3130 3130 0 3130 0 0 3130 0 3130 -3130 0 -3130 0 0
-3130z m3141 2850 c23 -13 25 -52 4 -70 -8 -7 -25 -10 -39 -6 -32 8 -40 42
-15 67 22 22 24 22 50 9z m2492 -168 c37 -32 7 -112 -43 -112 -26 0 -70 43
-70 68 0 35 49 75 79 64 9 -3 24 -12 34 -20z m-4805 -178 c25 -28 27 -42 11
-78 -27 -59 -115 -55 -140 6 -15 37 1 75 41 95 31 16 59 8 88 -23z m2507 -293
c237 -63 417 -214 531 -446 75 -155 104 -267 111 -436 5 -121 -4 -234 -23
-283 -3 -9 14 -25 48 -46 390 -240 682 -660 772 -1110 47 -232 37 -533 -25
-780 -83 -336 -258 -626 -509 -847 -257 -227 -582 -368 -953 -413 -143 -18
-424 -8 -562 20 -369 74 -712 271 -947 545 -171 198 -295 432 -363 680 -71
263 -74 609 -6 877 l19 78 -29 53 c-67 125 -78 297 -25 428 l26 66 -35 76
c-19 42 -40 98 -47 126 -10 46 -9 54 15 103 27 55 52 77 442 392 60 49 112 90
114 92 2 2 -4 32 -14 66 -60 213 37 447 225 543 88 45 156 58 260 52 87 -5 99
-4 145 18 28 14 77 30 110 36 33 6 101 31 150 54 79 37 164 65 245 79 59 11
248 -3 325 -23z m-1509 -106 c26 -39 -31 -86 -64 -53 -18 18 -15 55 6 67 23
14 42 10 58 -14z m2503 -592 c12 -23 -4 -53 -29 -53 -26 0 -45 36 -29 56 16
19 46 18 58 -3z m1510 -518 c31 -16 41 -33 41 -71 0 -33 -42 -74 -75 -74 -35
0 -75 42 -75 78 0 31 14 54 45 70 26 15 31 15 64 -3z m-5406 -677 c47 -25 62
-82 32 -125 -32 -45 -121 -37 -144 13 -18 40 -13 63 18 95 31 31 59 36 94 17z
m4968 -598 c37 -20 18 -80 -26 -80 -42 0 -59 44 -29 74 18 19 28 20 55 6z
m-4362 -610 c28 -14 34 -40 15 -61 -20 -22 -45 -24 -62 -7 -17 17 -15 44 4 62
18 19 20 19 43 6z m3602 -820 c26 -15 26 -66 -1 -75 -11 -3 -29 -3 -40 0 -26
8 -28 60 -2 74 21 13 20 13 43 1z m-3866 -632 c30 -36 28 -71 -7 -101 -50 -42
-139 6 -124 67 17 69 86 87 131 34z m4938 -30 c33 -17 46 -39 47 -76 0 -46
-16 -71 -56 -88 -29 -12 -39 -12 -68 0 -19 8 -39 23 -45 34 -43 80 44 172 122
130z m-2885 -180 c17 -17 15 -53 -3 -68 -24 -20 -65 3 -65 34 0 37 43 59 68
34z"/>
<path d="M3010 5334 c-86 -18 -155 -40 -225 -74 -44 -21 -106 -43 -139 -49
-32 -6 -83 -24 -114 -41 l-56 -30 -82 12 c-203 29 -388 -72 -477 -259 -30 -64
-32 -74 -32 -178 1 -87 5 -121 21 -161 17 -41 18 -53 8 -60 -74 -52 -543 -449
-554 -469 -24 -46 -16 -87 39 -203 l54 -110 -26 -53 c-36 -78 -47 -125 -47
-205 0 -87 18 -151 63 -218 33 -49 33 -53 21 -90 -29 -81 -56 -256 -61 -392
-16 -387 90 -740 316 -1058 77 -110 267 -297 381 -378 537 -380 1233 -417
1802 -96 132 74 270 182 380 296 334 348 496 792 466 1278 -32 536 -325 1022
-790 1314 l-66 41 26 77 c23 67 26 94 26 207 0 173 -5 190 -144 480 -91 189
-262 333 -465 393 -79 23 -263 38 -325 26z m325 -78 c124 -40 274 -141 334
-225 19 -26 13 -24 -53 20 -206 137 -458 168 -684 82 l-43 -16 -32 30 c-18 17
-43 36 -56 43 -28 15 -22 20 59 51 149 57 328 63 475 15z m-607 -136 c45 -28
65 -79 60 -155 -7 -115 -89 -234 -200 -289 -150 -75 -266 11 -236 176 35 192
250 345 376 268z m142 -92 c45 -163 -109 -395 -280 -423 -32 -6 -30 -4 18 21
76 38 152 116 193 199 31 63 34 78 34 155 0 70 -4 92 -23 125 l-23 40 35 -37
c19 -20 40 -56 46 -80z m-544 60 c11 -35 -4 -68 -30 -68 -14 0 -31 -3 -40 -6
-11 -4 -16 0 -16 12 0 11 -7 31 -14 46 -14 26 -13 28 7 33 71 15 83 13 93 -17z
m92 16 c10 -3 4 -16 -18 -44 -42 -53 -55 -51 -55 8 0 47 0 48 30 44 16 -2 36
-5 43 -8z m-219 -27 c6 -8 14 -27 17 -44 5 -26 2 -31 -25 -43 -29 -11 -33 -10
-66 19 l-35 30 22 15 c65 40 71 41 87 23z m-86 -85 l27 -28 -33 -32 -33 -32
-36 18 c-21 9 -37 21 -38 27 0 13 61 75 75 75 6 0 23 -13 38 -28z m1075 -29
c23 -31 14 -60 -29 -95 -23 -18 -65 -54 -94 -80 -29 -27 -59 -48 -68 -48 -27
0 -57 49 -52 84 18 108 191 208 243 139z m-848 13 c0 -2 -10 -25 -22 -52 -34
-77 -31 -172 9 -249 23 -43 33 -77 35 -122 l4 -63 -55 58 c-31 32 -78 69 -104
81 -42 20 -53 22 -90 13 -23 -6 -43 -9 -45 -7 -12 11 -13 100 -3 141 28 112
133 198 249 203 12 1 22 -1 22 -3z m1239 -56 c230 -149 338 -394 271 -612 -22
-73 -80 -166 -134 -218 -30 -29 -39 -32 -46 -20 -6 10 -3 21 9 35 34 37 71
123 83 195 30 177 -58 406 -225 586 -31 34 -57 64 -57 68 0 17 43 2 99 -34z
m-1538 -29 c18 -14 21 -22 13 -32 -6 -8 -16 -27 -21 -44 -9 -27 -13 -29 -56
-30 -26 0 -47 3 -47 7 0 4 9 32 21 63 17 45 25 55 44 55 12 0 33 -8 46 -19z
m-37 -127 c12 -5 16 -20 16 -59 0 -49 -2 -53 -27 -58 -16 -3 -36 -9 -45 -12
-14 -5 -18 3 -24 51 -6 49 -4 59 12 71 19 14 43 17 68 7z m940 -60 c22 -21 20
-50 -4 -74 -24 -24 -29 -24 -58 -4 -26 18 -28 50 -5 76 20 22 46 23 67 2z
m256 6 c0 -5 -4 -10 -10 -10 -5 0 -10 5 -10 10 0 6 5 10 10 10 6 0 10 -4 10
-10z m-1170 -99 c0 -11 -15 -31 -32 -46 l-33 -28 -11 29 c-15 36 -12 41 29 53
46 13 47 13 47 -8z m179 -41 c36 -23 171 -167 171 -182 0 -2 -17 -2 -38 0 -36
4 -49 -4 -213 -133 -203 -159 -192 -150 -187 -165 2 -6 86 54 188 134 102 80
193 146 203 146 41 0 117 -60 117 -93 0 -35 -21 -57 -211 -213 -189 -155 -208
-166 -209 -116 0 34 -34 75 -76 94 -69 30 -135 9 -174 -55 -41 -66 -10 -160
62 -195 l40 -18 -96 -78 c-66 -54 -106 -79 -131 -83 -35 -6 -40 -3 -94 55 -32
34 -70 84 -85 111 -25 47 -26 50 -7 56 11 3 25 13 33 22 12 15 10 15 -19 0
-31 -16 -32 -16 -47 5 -24 34 -19 54 19 78 19 12 35 24 35 26 0 6 -14 -2 -51
-27 -26 -18 -26 -18 -37 5 -6 13 -8 34 -5 45 5 20 684 587 722 603 29 12 43 8
90 -22z m276 -20 c12 0 15 -13 15 -67 0 -38 7 -98 14 -134 17 -77 68 -207 98
-244 10 -14 16 -25 12 -25 -8 0 -10 3 -73 84 -33 42 -46 70 -52 109 -5 31 -21
69 -38 94 -24 34 -33 60 -41 125 -5 45 -10 84 -10 85 0 2 13 -3 30 -12 16 -8
36 -15 45 -15z m1155 10 c0 -5 -5 -10 -11 -10 -5 0 -7 5 -4 10 3 6 8 10 11 10
2 0 4 -4 4 -10z m-252 -112 c-7 -19 -38 -22 -38 -4 0 10 9 16 21 16 12 0 19
-5 17 -12z m-438 -214 c0 -8 -7 -14 -15 -14 -15 0 -21 21 -9 33 10 9 24 -2 24
-19z m-426 -121 l37 -52 -33 4 c-55 8 -108 -4 -108 -25 0 -25 19 -30 111 -30
44 0 112 -7 152 -16 114 -26 141 -60 288 -361 l119 -245 -36 -45 c-44 -53 -97
-106 -141 -140 -30 -23 -33 -23 -56 -8 -66 43 -202 230 -287 396 -49 95 -73
119 -86 84 -4 -9 15 -58 42 -111 62 -124 55 -134 -59 -77 -112 55 -225 142
-329 252 -49 51 -88 95 -88 99 0 4 87 78 194 165 107 87 200 165 207 173 14
18 17 16 73 -63z m761 47 c0 -7 -6 -15 -12 -17 -8 -3 -13 4 -13 17 0 13 5 20
13 18 6 -3 12 -11 12 -18z m651 -96 c220 -132 451 -379 572 -613 57 -109 126
-287 117 -301 -4 -6 -2 -10 3 -10 11 0 42 -127 41 -166 -1 -16 -5 -40 -10 -54
-6 -18 -7 -7 -4 35 3 51 3 55 -6 25 -5 -19 -6 -55 -3 -80 l7 -45 11 35 10 35
4 -34 c2 -19 -2 -44 -8 -56 -9 -16 -9 -28 -2 -42 7 -13 8 -49 2 -109 -33 -334
-100 -537 -258 -779 -79 -121 -71 -112 -83 -95 -9 12 -10 12 -5 -3 8 -25 -77
-130 -92 -115 -15 15 -42 2 -41 -19 1 -17 2 -17 6 0 4 17 33 25 33 9 0 -15
-56 -62 -65 -55 -4 5 -5 3 -1 -4 8 -14 -10 -27 -19 -14 -3 6 -19 9 -35 8 l-29
-2 20 -21 21 -22 -27 -18 c-14 -11 -54 -40 -89 -67 -44 -33 -69 -45 -82 -41
-14 4 -15 3 -6 -4 14 -9 -6 -22 -128 -82 -25 -13 -56 -28 -70 -36 -70 -35
-250 -90 -276 -84 -4 1 -10 -3 -13 -8 -3 -6 -26 -13 -51 -16 -25 -3 -90 -12
-145 -20 -125 -19 -379 -15 -520 8 -164 27 -410 109 -383 128 9 7 8 8 -5 4
-10 -3 -33 2 -50 11 -18 9 -38 18 -44 19 -7 1 -20 9 -29 18 -8 9 -20 16 -25
16 -5 0 -9 8 -9 18 0 15 -2 15 -11 2 -8 -11 -12 -12 -16 -2 -2 6 -11 12 -18
12 -8 0 -18 8 -24 18 -5 9 -13 15 -18 12 -4 -3 -8 9 -8 27 0 17 -4 35 -8 39
-4 5 -5 0 -1 -11 6 -15 4 -17 -12 -12 -19 7 -19 7 0 -8 11 -8 16 -18 13 -22
-4 -4 -22 7 -40 24 -17 17 -41 35 -52 41 -13 7 -15 12 -6 12 8 0 22 -7 32 -16
14 -13 21 -13 36 -4 17 11 17 11 -1 6 -26 -9 -48 12 -40 37 6 19 5 19 -17 3
-32 -22 -49 -20 -22 3 20 17 21 20 8 31 -9 7 -18 10 -22 6 -3 -3 -1 -6 5 -6
19 0 14 -17 -7 -23 -12 -3 -34 10 -65 40 -26 24 -52 41 -58 37 -7 -4 -8 -3 -4
5 4 6 12 8 18 5 6 -4 8 -2 4 4 -3 5 -3 12 1 15 5 2 2 2 -6 0 -8 -2 -22 5 -33
16 -19 22 -24 36 -8 26 6 -3 10 -2 10 3 0 6 -10 12 -22 16 -13 3 -29 14 -35
25 -11 18 -10 20 5 15 15 -5 15 -4 2 6 -11 9 -12 13 -2 17 6 2 10 9 6 14 -3 5
-13 1 -22 -9 -9 -10 -16 -16 -15 -14 1 2 -6 12 -15 22 -24 26 -57 85 -44 76 8
-5 10 -1 6 8 -4 10 -1 16 7 16 7 0 9 3 6 6 -4 4 -13 1 -22 -6 -13 -11 -14 -10
-9 5 5 11 3 16 -2 12 -6 -3 -9 6 -8 21 2 40 3 42 15 42 6 0 8 -8 5 -17 -3 -10
-1 -25 5 -33 9 -12 10 -12 5 3 -3 10 -2 26 3 36 8 14 4 17 -25 18 -19 0 -34
-4 -34 -9 0 -5 4 -7 9 -4 5 3 8 -5 7 -19 -1 -30 -6 -24 -39 51 -26 59 -26 63
-11 99 8 20 13 40 10 43 -3 3 -6 0 -6 -7 0 -7 -5 -9 -10 -6 -6 4 -7 11 -4 17
4 7 2 8 -4 4 -9 -5 -9 -13 -1 -28 7 -14 8 -23 1 -30 -11 -11 -32 52 -68 196
-13 53 -15 76 -6 98 5 15 6 30 2 33 -5 3 -11 -3 -14 -12 -3 -12 -4 -9 -4 7 1
14 -4 43 -10 65 -15 50 -15 243 -2 355 10 77 48 260 56 269 6 7 109 -92 106
-101 -1 -6 3 -8 10 -5 18 6 50 -12 42 -24 -3 -6 2 -9 12 -7 12 2 18 -2 16 -10
-1 -8 2 -11 7 -8 11 7 61 -14 61 -26 0 -4 3 -7 8 -6 15 5 141 -56 135 -66 -4
-5 1 -7 10 -3 9 3 54 -7 99 -23 46 -16 78 -29 71 -30 -6 0 -9 -9 -5 -22 4 -18
2 -20 -16 -16 -12 4 -25 2 -28 -3 -3 -5 5 -9 17 -9 16 0 20 -5 16 -19 -3 -11
1 -22 8 -25 16 -6 25 3 24 23 0 12 -3 11 -9 -4 -12 -29 -12 2 0 47 9 29 14 35
31 31 14 -4 18 -11 14 -22 -14 -36 -36 -238 -33 -297 l3 -64 -38 0 c-83 0
-168 -57 -205 -139 -31 -67 -46 -227 -21 -219 9 3 16 29 21 74 15 149 73 219
205 243 38 8 48 6 69 -13 l25 -21 -33 1 c-89 4 -200 -77 -227 -166 -12 -42
-12 -252 0 -244 10 6 16 -17 15 -57 -1 -22 3 -36 10 -36 7 0 10 7 7 16 -3 9
13 -13 37 -49 23 -36 46 -67 51 -68 5 -2 7 -7 4 -12 -7 -11 125 -115 196 -154
32 -18 56 -36 51 -41 -4 -4 0 -6 9 -3 9 4 42 0 75 -8 77 -18 118 -18 185 2
118 35 184 160 161 306 -11 73 -24 100 -42 82 -6 -6 -6 -23 1 -49 14 -51 5
-142 -16 -165 -9 -10 -40 -28 -68 -40 -89 -39 -231 -15 -343 56 -68 44 -164
132 -164 152 0 8 -3 12 -7 8 -16 -15 -103 158 -103 207 0 18 -2 19 -10 7 -18
-26 1 72 21 111 22 44 74 79 128 86 30 4 63 -4 144 -36 92 -36 213 -71 242
-71 6 1 -1 10 -14 21 -24 20 -23 41 1 22 7 -5 40 -10 73 -10 33 0 48 2 32 4
-16 3 -25 9 -21 15 5 7 2 8 -7 2 -19 -12 -69 -14 -69 -3 0 5 -12 9 -27 10 -16
0 -37 4 -48 9 -14 7 -7 7 20 3 156 -27 274 25 307 134 11 38 -11 106 -45 141
-33 35 -123 68 -158 59 -10 -3 -19 -4 -19 -2 0 13 45 83 51 80 3 -3 6 3 5 13
0 9 4 16 11 15 8 -2 10 4 6 14 -4 11 -3 14 5 9 8 -5 10 -1 5 10 -4 12 -3 15 5
10 8 -5 10 -1 5 10 -4 10 -2 15 3 11 5 -3 10 2 11 11 0 9 8 51 18 92 9 41 14
86 12 100 -3 14 -2 55 2 93 4 39 3 67 -2 67 -5 0 -7 6 -4 14 4 10 0 14 -13 11
-10 -2 -26 5 -36 16 -19 21 -6 27 15 7 10 -11 11 -10 6 5 -4 9 -13 17 -20 17
-28 0 -24 -19 10 -49 31 -27 35 -36 35 -78 l0 -47 -26 52 c-17 33 -51 75 -95
114 -37 34 -66 65 -63 70 9 15 47 8 69 -12 20 -19 21 -19 21 0 0 10 -5 16 -11
12 -5 -3 5 11 23 31 21 25 32 48 32 69 0 26 2 29 15 18 8 -6 20 -27 27 -45 6
-19 15 -32 19 -29 4 2 5 -5 2 -16 -3 -11 -10 -17 -17 -13 -7 4 -7 1 1 -7 9 -9
9 -19 2 -32 -6 -11 -8 -22 -6 -25 3 -2 8 4 11 15 4 11 13 23 21 26 18 7 20 -5
3 -22 -20 -20 6 -38 34 -24 20 9 21 11 4 11 -11 1 -16 4 -13 7 11 12 -13 43
-28 38 -11 -5 -13 -2 -8 11 5 15 12 11 44 -26 20 -24 35 -47 32 -52 -2 -4 -8
-5 -13 -2 -5 3 -13 -2 -18 -12 -9 -16 -11 -16 -27 0 -16 17 -25 21 -25 12 0
-5 49 -55 55 -55 2 0 1 7 -2 17 -4 10 -2 14 5 9 6 -3 15 2 21 11 8 15 13 16
28 6 10 -6 17 -16 16 -22 -2 -6 3 -11 10 -11 8 0 34 -24 58 -52 24 -29 61 -73
84 -96 22 -24 39 -48 38 -53 -2 -5 3 -9 11 -9 8 0 35 -18 61 -40 63 -55 128
-82 202 -85 34 -2 66 -5 71 -9 12 -7 46 30 38 43 -3 5 -3 11 1 13 17 7 43 81
43 119 0 22 -7 56 -15 76 -18 43 -18 43 -1 43 7 0 19 7 26 15 7 8 16 13 19 10
12 -7 -4 82 -17 98 -7 8 -8 17 -4 21 4 4 1 6 -7 4 -8 -2 -19 9 -25 25 -8 22
-5 42 14 97 13 39 27 70 31 70 4 0 12 14 20 32 20 49 117 141 179 170 73 35
192 59 231 48 38 -11 117 -61 147 -93 13 -14 20 -31 17 -45 -2 -13 0 -20 6
-17 5 4 6 11 3 17 -4 7 -2 8 4 4 42 -26 100 -203 86 -264 -24 -101 -171 -247
-295 -292 -79 -29 -128 -33 -178 -15 -53 18 -79 5 -35 -18 109 -56 250 -61
347 -12 249 125 288 467 78 675 -96 94 -205 140 -337 140 -145 0 -266 -72
-329 -197 -28 -54 -30 -66 -30 -169 l0 -112 -27 19 c-15 11 -61 35 -102 54
l-76 34 -65 134 c-36 73 -65 138 -65 144 0 6 -11 31 -25 54 -14 24 -25 47 -25
50 0 3 31 -5 69 -18 38 -12 99 -27 136 -32 37 -6 69 -12 72 -14 2 -3 20 -1 39
3 18 4 34 4 34 -1 0 -5 -12 -11 -27 -15 -46 -10 -50 -12 -20 -13 16 -1 26 -5
22 -11 -3 -5 -1 -10 5 -10 7 0 10 5 8 12 -4 12 30 53 38 46 2 -2 -7 -20 -19
-39 -43 -65 -62 -152 -51 -235 10 -83 30 -70 37 25 9 131 85 261 160 275 18 3
66 22 106 41 53 26 86 35 123 35 42 0 49 3 44 16 -3 9 -6 17 -6 20 0 2 -7 1
-15 -2 -8 -4 -15 -4 -15 -1 0 8 109 111 122 116 5 2 16 -6 24 -18 9 -12 20
-19 25 -15 12 7 7 29 -7 30 -5 0 -17 4 -26 8 -15 7 -14 12 10 52 15 24 29 44
33 44 3 0 32 -16 65 -36z m-623 11 c1 -5 -6 -11 -15 -13 -11 -2 -18 3 -18 13
0 17 30 18 33 0z m-1363 -60 c31 -16 60 -61 60 -92 0 -13 -6 -8 -20 14 -69
114 -216 31 -155 -88 15 -29 15 -29 -4 -17 -44 27 -55 108 -20 152 36 46 88
58 139 31z m1638 -43 c2 -7 -3 -12 -12 -12 -9 0 -16 7 -16 16 0 17 22 14 28
-4z m-1651 -48 c2 -6 -4 -14 -14 -17 -10 -2 -26 -8 -35 -12 -14 -5 -18 -2 -18
12 0 11 3 23 7 27 11 10 56 3 60 -10z m40 -66 c16 -25 15 -27 -13 -51 l-29
-25 -22 34 c-28 40 -28 50 -5 63 26 16 52 9 69 -21z m61 -85 l19 -27 -27 -23
c-15 -13 -30 -23 -33 -23 -3 0 -15 13 -26 28 -18 26 -19 31 -5 50 20 30 48 28
72 -5z m-58 -133 c75 -90 247 -223 384 -296 56 -30 65 -59 9 -31 -15 8 -59 24
-96 37 -60 19 -80 33 -163 113 -93 88 -214 236 -214 260 1 12 7 5 80 -83z
m126 59 l22 -21 -31 -28 -32 -29 -22 21 c-29 27 -29 43 -1 62 29 21 37 20 64
-5z m-197 -85 c29 -36 82 -97 118 -135 36 -38 61 -69 55 -69 -13 0 -144 120
-211 192 -27 30 -41 53 -37 63 9 25 20 18 75 -51z m-385 11 c61 -79 160 -86
239 -17 17 15 24 9 113 -79 64 -63 93 -100 90 -111 -5 -23 11 -35 64 -47 119
-27 330 -103 387 -140 128 -82 182 -161 183 -262 0 -57 -32 -183 -50 -194 -5
-3 -26 3 -47 13 -63 32 -229 82 -311 93 -42 6 -124 26 -182 45 -267 89 -469
228 -546 375 -26 49 -29 64 -29 149 1 75 6 107 24 153 12 31 26 57 31 57 4 0
20 -16 34 -35z m652 4 l22 -20 -27 -27 c-26 -28 -26 -28 -53 -9 -32 21 -34 33
-11 59 21 24 42 23 69 -3z m83 -68 l34 -28 -23 -31 -23 -31 -38 27 c-44 31
-49 54 -17 76 29 20 27 21 67 -13z m99 -71 c46 -33 51 -49 24 -73 -16 -15 -21
-14 -70 14 -29 16 -52 32 -52 36 0 9 42 53 50 53 4 0 26 -14 48 -30z m142 -94
c0 -22 -28 -39 -52 -32 -44 11 -49 19 -36 53 l12 31 38 -19 c21 -11 38 -26 38
-33z m37 -29 c-23 -35 -42 -34 -21 1 10 17 22 28 26 26 5 -3 3 -15 -5 -27z
m667 -37 c122 -59 202 -137 165 -161 -8 -5 -21 -6 -29 -3 -63 26 -74 4 -29
-59 22 -32 33 -61 37 -96 4 -47 2 -53 -31 -86 -27 -27 -43 -35 -72 -35 -63 0
-142 48 -243 147 l-93 91 84 81 c47 45 96 97 108 116 13 19 28 35 33 35 4 0
36 -13 70 -30z m-507 -85 c0 -8 -4 -15 -9 -15 -10 0 -11 14 -1 23 9 10 10 9
10 -8z m1353 -119 c0 -2 -8 -10 -17 -17 -16 -13 -17 -12 -4 4 13 16 21 21 21
13z m-713 -280 c-16 -18 -31 -8 -16 10 6 7 15 11 20 8 5 -3 3 -11 -4 -18z
m-982 -53 c91 -29 155 -59 155 -72 0 -5 -16 -37 -35 -71 -36 -64 -44 -100 -22
-100 6 0 31 5 55 10 59 14 125 -4 157 -42 75 -89 -26 -198 -170 -185 -69 7
-208 48 -277 83 -40 20 -47 29 -50 56 -4 47 8 211 22 291 l12 69 37 -7 c20 -3
72 -18 116 -32z m1783 -1201 c2 -7 -2 -10 -12 -6 -9 3 -16 11 -16 16 0 13 23
5 28 -10z"/>
<path d="M2225 4931 c-75 -34 -125 -106 -138 -202 -8 -52 1 -60 51 -47 32 8
52 7 84 -4 l43 -14 1 101 c1 65 7 115 17 143 15 39 15 42 -1 42 -9 0 -35 -9
-57 -19z"/>
<path d="M2048 4483 c-45 -36 -58 -52 -58 -73 0 -30 63 -120 85 -120 13 0 113
74 127 94 16 23 7 55 -27 100 -20 25 -44 46 -53 46 -9 -1 -43 -22 -74 -47z
m133 -50 c11 -20 9 -26 -11 -48 -13 -14 -30 -23 -38 -20 -8 3 -25 -4 -39 -15
-14 -11 -21 -20 -16 -20 6 0 16 7 23 15 7 8 18 15 24 15 13 0 -35 -39 -49 -40
-6 0 -16 9 -22 19 -10 16 -9 20 3 25 10 4 13 2 8 -7 -5 -7 -1 -7 10 2 13 11
14 16 4 22 -7 4 -18 3 -26 -3 -9 -8 -16 -8 -25 2 -10 10 -9 11 3 6 8 -4 7 -1
-4 8 -22 18 -17 27 47 77 l51 41 22 -28 c12 -15 28 -38 35 -51z"/>
<path d="M1615 3850 c-94 -74 -129 -111 -92 -97 29 11 206 152 206 165 1 21
-11 14 -114 -68z"/>
<path d="M3795 3980 c-3 -5 -4 -14 -1 -19 4 -5 3 -11 -1 -14 -5 -2 -2 -2 4 -1
15 4 12 -31 -4 -47 -8 -8 -13 -8 -17 0 -4 6 -1 11 6 11 8 0 7 6 -5 17 -16 16
-18 16 -40 -6 -12 -13 -16 -21 -9 -17 7 4 12 2 12 -6 0 -10 3 -9 9 2 6 8 7 18
5 22 -3 4 0 8 6 8 7 0 9 -8 5 -19 -3 -10 0 -23 7 -28 9 -7 23 2 48 31 19 23
31 38 26 34 -11 -9 -46 9 -46 24 0 6 7 5 18 -3 15 -13 16 -12 3 4 -16 20 -18
20 -26 7z"/>
<path d="M3753 3865 c0 -8 4 -12 9 -9 5 3 6 10 3 15 -9 13 -12 11 -12 -6z"/>
<path d="M3020 3753 c0 -10 16 -14 67 -15 18 -1 30 -4 28 -7 -1 -3 17 -4 42
-2 61 4 50 10 -33 14 -38 3 -77 8 -86 12 -10 4 -18 3 -18 -2z"/>
<path d="M3030 3706 c0 -13 3 -16 8 -10 4 7 16 14 27 16 17 3 15 5 -7 10 -24
4 -28 2 -28 -16z"/>
<path d="M3178 3713 c7 -3 16 -2 19 1 4 3 -2 6 -13 5 -11 0 -14 -3 -6 -6z"/>
<path d="M3118 3696 c-27 -20 -11 -26 61 -24 l66 1 -65 7 c-36 4 -52 7 -37 8
16 1 25 6 22 12 -8 14 -26 12 -47 -4z"/>
<path d="M4100 3595 c0 -3 11 -22 24 -43 45 -68 69 -158 69 -257 0 -120 -26
-189 -101 -268 -58 -61 -62 -78 -12 -57 97 40 175 250 150 405 -5 34 -17 80
-26 101 -22 53 -74 124 -91 124 -7 0 -13 -2 -13 -5z"/>
<path d="M2614 3378 c3 -10 1 -20 -5 -24 -5 -3 -7 -14 -4 -25 5 -14 2 -17 -8
-13 -8 3 -17 2 -20 -3 -3 -4 7 -8 23 -8 20 -1 26 3 22 14 -3 9 -1 12 6 7 14
-8 8 26 -8 51 -10 16 -11 16 -6 1z"/>
<path d="M2486 3264 c45 -45 61 -55 61 -39 0 19 -24 40 -56 50 -23 7 -24 7 -5
-11z m45 -21 c13 -17 13 -17 -6 -3 -11 8 -22 16 -24 17 -2 2 0 3 6 3 6 0 17
-8 24 -17z"/>
<path d="M4570 3259 c0 -11 4 -18 10 -14 5 3 7 12 3 20 -7 21 -13 19 -13 -6z"/>
<path d="M2636 3207 c3 -10 9 -15 12 -12 3 3 0 11 -7 18 -10 9 -11 8 -5 -6z"/>
<path d="M4580 3214 c0 -5 6 -19 14 -30 8 -10 11 -23 7 -29 -4 -5 -5 -21 -1
-35 7 -22 8 -23 15 -6 5 11 3 21 -5 26 -10 6 -10 8 0 12 9 3 6 14 -9 38 -11
19 -21 30 -21 24z"/>
<path d="M2560 3203 c0 -3 18 -25 40 -49 22 -24 40 -41 40 -37 0 3 -18 25 -40
49 -22 24 -40 41 -40 37z"/>
<path d="M2746 3182 c-16 -19 -13 -52 6 -52 5 0 6 5 3 10 -3 6 -2 10 3 10 16
0 22 -13 12 -25 -7 -8 -4 -17 9 -29 14 -13 21 -14 27 -5 4 8 3 10 -4 5 -8 -5
-12 0 -12 13 0 12 5 21 10 21 6 0 10 -5 10 -11 0 -5 5 -7 11 -4 6 4 -1 17 -18
31 -15 13 -28 28 -28 33 0 19 -12 20 -29 3z m21 1 c-4 -3 1 -16 10 -27 16 -19
16 -19 1 -7 -9 7 -22 10 -29 6 -8 -6 -8 -2 0 14 7 11 15 21 18 21 3 0 3 -3 0
-7z"/>
<path d="M4564 3164 c0 -30 2 -33 9 -16 5 12 5 26 0 36 -7 12 -9 7 -9 -20z"/>
<path d="M2840 3095 c7 -9 10 -19 6 -22 -4 -4 -12 -1 -17 7 -9 13 -10 13 -6
-1 3 -9 0 -23 -6 -30 -10 -11 -9 -11 6 0 18 14 22 7 18 -28 -2 -7 2 -10 7 -7
6 3 13 0 15 -6 4 -8 6 -9 6 -2 1 13 77 -60 92 -87 12 -24 11 -31 -3 -24 -7 4
5 -9 27 -28 30 -26 43 -32 53 -25 9 8 11 7 6 -7 -6 -15 -5 -16 14 -4 21 13 17
29 -9 32 -13 2 -19 9 -19 22 0 3 15 -2 33 -10 28 -14 30 -14 13 0 -11 8 -24
15 -29 15 -4 0 -5 6 -1 13 4 6 -2 3 -14 -7 -26 -23 -40 -16 -16 8 9 9 13 20
10 23 -10 10 -37 13 -31 3 3 -4 -1 -10 -8 -13 -8 -3 -18 7 -25 23 -7 15 -22
30 -34 34 -12 3 -19 8 -16 11 3 4 16 1 28 -5 33 -18 33 -7 1 24 -21 20 -31 24
-36 15 -5 -7 -4 -10 3 -5 6 3 13 2 16 -3 3 -5 -1 -11 -9 -15 -9 -3 -19 3 -25
15 -6 11 -15 17 -19 14 -5 -3 -11 1 -14 8 -3 8 3 14 14 14 10 1 19 -3 19 -9 0
-6 3 -8 7 -5 3 4 -6 19 -20 33 -15 15 -27 31 -27 35 0 5 -5 9 -11 9 -8 0 -7
-5 1 -15z m165 -189 c-15 -23 -15 -25 4 -36 12 -6 21 -15 21 -21 0 -6 -13 0
-29 13 l-29 23 21 23 c27 29 31 28 12 -2z"/>
<path d="M1578 3058 c-5 -15 8 -30 41 -47 12 -7 20 -15 17 -18 -3 -3 -12 0
-20 6 -8 7 -20 10 -26 6 -5 -3 -10 -1 -10 4 0 6 -4 11 -10 11 -5 0 -10 -4 -10
-9 0 -13 69 -55 77 -47 4 3 0 6 -8 6 -9 1 -8 4 5 12 15 8 21 7 28 -6 5 -9 13
-14 19 -11 5 4 9 2 9 -3 0 -6 10 -8 22 -4 14 3 19 2 14 -6 -4 -7 -16 -12 -27
-12 -11 0 -17 -5 -14 -10 4 -6 16 -8 27 -4 14 4 18 2 14 -5 -4 -6 -3 -11 3
-11 16 0 22 18 9 23 -7 2 -10 7 -7 11 10 10 36 -4 36 -19 0 -8 -4 -15 -9 -15
-22 0 -5 -16 20 -18 21 -1 23 0 12 8 -12 8 -10 10 10 11 14 1 32 1 40 0 13 -2
13 -1 0 8 -8 5 -28 8 -45 5 -16 -2 -24 -1 -17 2 19 9 -35 44 -67 44 -17 0 -22
4 -17 16 5 13 3 14 -6 6 -9 -7 -17 -6 -25 3 -9 10 -10 14 -1 17 7 3 5 7 -6 11
-10 4 -15 3 -11 -3 9 -15 -2 -12 -30 6 -14 9 -23 20 -20 24 3 5 1 11 -4 14 -5
4 -11 1 -13 -6z"/>
<path d="M4290 3060 c0 -6 14 -13 31 -17 96 -19 134 -224 56 -310 -21 -24 -85
-34 -71 -11 5 7 3 8 -5 4 -7 -5 -21 0 -32 10 -21 19 -26 39 -6 28 7 -4 9 -3 4
2 -5 5 -13 9 -19 9 -6 0 -18 20 -27 45 -19 56 -19 56 -33 42 -15 -15 5 -93 37
-140 65 -95 156 -95 217 2 l19 31 -7 -29 c-9 -38 13 -32 43 12 32 48 39 134
16 201 -10 30 -24 57 -32 59 -11 4 -12 -1 -5 -19 11 -33 11 -180 -1 -201 -7
-11 -9 10 -7 70 3 76 0 93 -21 132 -13 25 -38 55 -57 68 -33 22 -100 30 -100
12z"/>
<path d="M4547 3033 c-4 -3 -7 -11 -7 -17 0 -6 5 -5 12 2 6 6 9 14 7 17 -3 3
-9 2 -12 -2z"/>
<path d="M2900 2950 c6 -11 20 -25 33 -31 18 -10 17 -6 -7 20 -34 36 -41 39
-26 11z"/>
<path d="M4530 2944 c0 -10 5 -26 10 -34 8 -11 9 -7 4 15 -8 37 -14 45 -14 19z"/>
<path d="M2661 2904 c0 -11 3 -14 6 -6 3 7 2 16 -1 19 -3 4 -6 -2 -5 -13z"/>
<path d="M1871 2891 c-9 -6 2 -14 38 -26 29 -9 55 -14 58 -11 4 3 -1 6 -11 6
-9 0 -14 4 -11 10 3 5 -2 9 -12 8 -10 0 -27 0 -38 1 -17 1 -18 3 -5 11 8 5 11
10 5 10 -5 0 -16 -4 -24 -9z"/>
<path d="M1800 2879 c-13 -9 -12 -10 3 -5 9 3 17 1 17 -4 0 -5 6 -7 13 -4 7 2
24 -4 37 -16 26 -23 30 -24 50 -9 11 8 9 9 -10 3 -14 -3 -22 -3 -18 1 5 5 -11
17 -33 27 -48 21 -41 20 -59 7z"/>
<path d="M4540 2864 c0 -10 5 -26 10 -34 8 -11 9 -7 4 15 -8 37 -14 45 -14 19z"/>
<path d="M1980 2853 c0 -5 8 -17 17 -28 13 -16 15 -17 10 -2 -4 10 -1 17 6 17
8 0 6 4 -3 10 -18 12 -30 13 -30 3z"/>
<path d="M3100 2856 c0 -2 7 -6 15 -10 8 -3 15 -1 15 4 0 6 -7 10 -15 10 -8 0
-15 -2 -15 -4z"/>
<path d="M1930 2830 c-8 -5 -10 -10 -5 -10 6 0 17 5 25 10 8 5 11 10 5 10 -5
0 -17 -5 -25 -10z"/>
<path d="M3133 2832 c-6 -4 7 -8 30 -8 30 -1 36 1 22 7 -26 10 -37 10 -52 1z"/>
<path d="M2025 2810 c-16 -11 -25 -20 -19 -20 11 0 64 39 54 40 -3 0 -18 -9
-35 -20z"/>
<path d="M3065 2821 c-6 -11 40 -26 100 -35 26 -4 33 -3 20 3 -16 7 -17 9 -5
13 8 3 3 3 -12 1 -36 -6 -90 6 -82 18 3 5 1 9 -5 9 -5 0 -12 -4 -16 -9z"/>
<path d="M3269 2819 c-12 -7 -12 -9 1 -10 8 -1 -3 -7 -25 -15 -37 -13 -38 -14
-7 -9 42 6 79 30 59 38 -8 3 -20 1 -28 -4z"/>
<path d="M4530 2802 c0 -17 4 -34 10 -37 6 -4 7 6 3 27 -8 44 -13 48 -13 10z"/>
<path d="M2122 2790 c0 -14 2 -19 5 -12 2 6 2 18 0 25 -3 6 -5 1 -5 -13z"/>
<path d="M4642 2780 c0 -19 2 -27 5 -17 2 9 2 25 0 35 -3 9 -5 1 -5 -18z"/>
<path d="M4517 2744 c-6 -6 16 -34 26 -34 3 0 7 7 10 14 4 11 1 13 -10 9 -11
-4 -14 -2 -9 5 7 12 -6 17 -17 6z"/>
<path d="M2111 2714 c0 -11 3 -14 6 -6 3 7 2 16 -1 19 -3 4 -6 -2 -5 -13z"/>
<path d="M3757 2720 c-59 -15 -91 -35 -139 -89 -50 -55 -68 -104 -68 -183 0
-90 24 -150 86 -217 67 -73 136 -104 222 -99 76 4 79 24 4 30 -62 4 -159 47
-154 68 1 6 -2 9 -6 6 -17 -10 -43 31 -55 86 -17 70 -5 158 28 214 14 24 31
44 37 44 6 0 8 3 5 7 -13 12 67 51 129 63 56 11 64 10 103 -9 25 -13 39 -26
35 -33 -4 -6 -3 -8 2 -5 14 8 26 -2 67 -55 50 -67 65 -142 43 -220 -19 -68
-19 -68 -5 -68 5 0 19 21 31 46 26 61 22 168 -10 235 -64 130 -224 211 -355
179z"/>
<path d="M4500 2711 c0 -5 5 -13 10 -16 6 -3 10 -2 10 4 0 5 -4 13 -10 16 -5
3 -10 2 -10 -4z"/>
<path d="M4476 2695 c-3 -9 -10 -14 -14 -11 -5 3 -9 -2 -9 -10 0 -12 5 -11 21
5 11 11 17 23 14 26 -3 3 -8 -1 -12 -10z"/>
<path d="M4531 2674 c0 -11 3 -14 6 -6 3 7 2 16 -1 19 -3 4 -6 -2 -5 -13z"/>
<path d="M2063 2610 c0 -41 2 -58 4 -37 2 20 2 54 0 75 -2 20 -4 3 -4 -38z"/>
<path d="M2096 2665 c-3 -9 -5 -44 -5 -78 l2 -62 8 75 c8 76 6 94 -5 65z"/>
<path d="M3564 2651 c-21 -15 -47 -37 -57 -49 -61 -68 -61 -227 -1 -283 13
-12 26 -20 29 -18 2 3 -4 29 -15 57 -42 110 -16 217 67 275 23 17 43 34 43 39
0 16 -28 7 -66 -21z"/>
<path d="M4426 2644 c-4 -9 -4 -19 -1 -22 2 -3 7 3 11 12 4 9 4 19 1 22 -2 3
-7 -3 -11 -12z"/>
<path d="M4651 2644 c0 -11 3 -14 6 -6 3 7 2 16 -1 19 -3 4 -6 -2 -5 -13z"/>
<path d="M4450 2639 c0 -5 5 -7 10 -4 6 3 10 8 10 11 0 2 -4 4 -10 4 -5 0 -10
-5 -10 -11z"/>
<path d="M4441 2604 c0 -11 3 -14 6 -6 3 7 2 16 -1 19 -3 4 -6 -2 -5 -13z"/>
<path d="M4411 2594 c0 -11 3 -14 6 -6 3 7 2 16 -1 19 -3 4 -6 -2 -5 -13z"/>
<path d="M4467 2603 c-4 -3 -7 -11 -7 -17 0 -6 5 -5 12 2 6 6 9 14 7 17 -3 3
-9 2 -12 -2z"/>
<path d="M4360 2511 c0 -5 5 -13 10 -16 6 -3 10 -2 10 4 0 5 -4 13 -10 16 -5
3 -10 2 -10 -4z"/>
<path d="M2082 2475 c-11 -12 -10 -15 3 -15 8 0 15 7 15 15 0 18 -2 18 -18 0z"/>
<path d="M4341 2472 c-14 -26 -14 -32 1 -32 6 0 8 3 5 7 -4 3 -2 12 5 20 6 7
8 16 5 19 -3 3 -10 -3 -16 -14z"/>
<path d="M4381 2474 c-11 -13 -11 -18 1 -30 13 -13 15 -11 15 16 0 16 -1 30
-1 30 -1 -1 -7 -8 -15 -16z"/>
<path d="M1516 2393 c15 -37 64 -93 64 -75 0 5 -7 15 -16 23 -8 7 -24 30 -35
51 -25 49 -33 49 -13 1z"/>
<path d="M4297 2400 c-10 -16 -16 -30 -13 -30 2 0 14 14 26 30 12 17 18 30 13
30 -5 0 -17 -13 -26 -30z"/>
<path d="M4596 2389 c-11 -55 -5 -66 10 -19 16 54 16 50 5 50 -5 0 -11 -14
-15 -31z"/>
<path d="M1490 2400 c0 -8 5 -22 10 -30 9 -13 10 -13 10 0 0 8 -5 22 -10 30
-9 13 -10 13 -10 0z"/>
<path d="M4561 2384 c0 -11 3 -14 6 -6 3 7 2 16 -1 19 -3 4 -6 -2 -5 -13z"/>
<path d="M4290 2356 c0 -2 7 -7 16 -10 8 -3 12 -2 9 4 -6 10 -25 14 -25 6z"/>
<path d="M4571 2344 c0 -11 3 -14 6 -6 3 7 2 16 -1 19 -3 4 -6 -2 -5 -13z"/>
<path d="M1505 2340 c-4 -6 -4 -14 -1 -17 3 -4 6 0 6 8 0 8 11 1 25 -16 13
-16 24 -25 25 -19 0 18 -47 57 -55 44z"/>
<path d="M2710 2330 c0 -12 -5 -17 -14 -14 -7 3 -22 -5 -32 -18 -11 -14 -27
-22 -38 -20 -10 2 -23 -1 -30 -8 -8 -9 -4 -10 17 -5 21 6 27 4 25 -6 -2 -8 -7
-17 -13 -21 -7 -5 -6 -8 1 -8 5 0 26 12 45 26 19 15 27 24 17 21 -22 -8 -30 3
-13 19 16 16 29 19 20 4 -3 -5 -2 -10 3 -10 6 0 15 14 21 30 6 18 6 30 0 30
-5 0 -9 -9 -9 -20z m-45 -70 c-3 -5 -11 -10 -16 -10 -6 0 -7 5 -4 10 3 6 11
10 16 10 6 0 7 -4 4 -10z"/>
<path d="M4226 2305 c-9 -26 -7 -32 5 -12 6 10 9 21 6 23 -2 3 -7 -2 -11 -11z"/>
<path d="M4561 2304 c0 -11 3 -14 6 -6 3 7 2 16 -1 19 -3 4 -6 -2 -5 -13z"/>
<path d="M1596 2285 c7 -18 6 -18 -9 -6 -9 7 -17 9 -17 3 0 -5 -9 -12 -20 -15
-11 -3 -20 -11 -20 -19 0 -10 3 -9 11 2 7 11 8 4 5 -25 l-5 -40 13 40 14 40 1
-32 c1 -18 6 -33 11 -33 12 0 12 -2 1 37 -8 28 -7 31 10 30 21 -1 25 -12 9
-22 -7 -4 -2 -14 11 -26 29 -25 37 -24 14 1 -10 11 -15 23 -12 27 4 3 16 -4
27 -17 11 -13 20 -19 20 -14 -1 5 -17 27 -36 49 -19 22 -32 31 -28 20z"/>
<path d="M4177 2243 c-4 -3 -7 -11 -7 -17 0 -6 5 -5 12 2 6 6 9 14 7 17 -3 3
-9 2 -12 -2z"/>
<path d="M2510 2226 c0 -2 11 -6 25 -8 14 -3 25 -1 25 3 0 5 -11 9 -25 9 -14
0 -25 -2 -25 -4z"/>
<path d="M2578 2223 c6 -2 18 -2 25 0 6 3 1 5 -13 5 -14 0 -19 -2 -12 -5z"/>
<path d="M4137 2200 c-21 -25 -22 -37 -2 -20 23 19 18 -1 -7 -27 -12 -13 -17
-23 -10 -23 6 0 20 14 32 30 12 17 17 30 11 30 -6 0 -8 7 -5 15 8 21 2 19 -19
-5z"/>
<path d="M1670 2201 c0 -5 -8 -12 -17 -15 -11 -3 -7 -4 7 -3 17 1 25 -3 24
-13 -1 -9 7 -16 17 -16 15 0 16 3 6 16 -23 30 -37 41 -37 31z"/>
<path d="M4192 2194 c10 -10 20 -15 24 -12 3 4 -5 12 -18 18 -22 12 -22 12 -6
-6z"/>
<path d="M4486 2148 c-5 -38 -4 -79 3 -72 5 5 10 104 5 104 -2 0 -5 -15 -8
-32z"/>
<path d="M4516 2158 c-3 -13 -5 -32 -5 -43 1 -11 5 -2 10 19 10 42 6 62 -5 24z"/>
<path d="M1583 2124 c-9 -20 -9 -31 3 -57 15 -32 13 -10 -2 27 -5 13 -4 17 4
12 14 -8 21 5 13 26 -5 14 -8 13 -18 -8z"/>
<path d="M4071 2132 c-8 -14 -6 -19 5 -19 7 0 14 9 14 19 0 10 -2 18 -5 18 -2
0 -9 -8 -14 -18z"/>
<path d="M1685 2130 c-8 -13 3 -30 18 -30 7 0 6 4 -3 10 -13 9 -13 11 0 20 9
6 10 10 3 10 -6 0 -15 -4 -18 -10z"/>
<path d="M4150 2132 c0 -5 -12 -13 -27 -18 l-28 -10 31 0 c21 1 30 6 31 19 1
9 0 17 -3 17 -2 0 -4 -4 -4 -8z"/>
<path d="M1720 2122 c0 -12 19 -26 26 -19 2 2 -2 10 -11 17 -9 8 -15 8 -15 2z"/>
<path d="M1763 2095 c0 -8 4 -12 9 -9 5 3 6 10 3 15 -9 13 -12 11 -12 -6z"/>
<path d="M4025 2089 c-4 -6 -4 -13 -1 -16 3 -4 -4 -18 -16 -32 -19 -21 -20
-23 -3 -11 11 8 26 21 33 28 7 6 19 12 25 12 7 0 -1 -12 -16 -25 -30 -27 -24
-34 9 -11 10 8 19 26 19 40 1 24 0 24 -17 9 -10 -9 -21 -13 -25 -9 -4 4 -1 11
7 16 9 6 10 10 3 10 -6 0 -15 -5 -18 -11z"/>
<path d="M1776 2068 c-23 -32 -20 -45 4 -18 19 21 26 40 16 40 -3 0 -12 -10
-20 -22z"/>
<path d="M1810 2063 c0 -6 5 -15 10 -18 6 -4 8 -11 5 -16 -3 -5 1 -6 9 -3 9 3
16 11 16 17 0 6 -3 7 -7 4 -3 -4 -12 1 -19 11 -8 9 -14 12 -14 5z"/>
<path d="M3984 2048 l-19 -23 23 19 c12 11 22 21 22 23 0 8 -8 2 -26 -19z"/>
<path d="M1855 2022 c-5 -4 -11 -15 -13 -26 -3 -15 -1 -16 11 -5 10 10 20 40
13 39 -1 0 -5 -4 -11 -8z"/>
<path d="M1883 2009 c4 -11 -3 -21 -19 -29 -13 -8 -24 -20 -24 -27 0 -12 3
-11 16 1 8 9 19 16 24 16 13 0 19 26 8 41 -8 11 -9 11 -5 -2z"/>
<path d="M3960 2000 c0 -5 4 -10 9 -10 6 0 13 5 16 10 3 6 -1 10 -9 10 -9 0
-16 -4 -16 -10z"/>
<path d="M3910 1990 c-9 -6 -10 -10 -3 -10 6 0 15 5 18 10 8 12 4 12 -15 0z"/>
<path d="M4410 1975 c0 -8 5 -15 10 -15 6 0 10 7 10 15 0 8 -4 15 -10 15 -5 0
-10 -7 -10 -15z"/>
<path d="M3930 1970 c0 -5 5 -10 10 -10 6 0 10 5 10 10 0 6 -4 10 -10 10 -5 0
-10 -4 -10 -10z"/>
<path d="M3977 1973 c-4 -3 -7 -11 -7 -17 0 -6 5 -5 12 2 6 6 9 14 7 17 -3 3
-9 2 -12 -2z"/>
<path d="M1870 1950 c-12 -7 -10 -9 7 -7 12 0 19 5 17 9 -6 10 -6 10 -24 -2z"/>
<path d="M3867 1949 c7 -7 15 -10 18 -7 3 3 -2 9 -12 12 -14 6 -15 5 -6 -5z"/>
<path d="M3907 1949 c7 -7 15 -10 18 -7 3 3 -2 9 -12 12 -14 6 -15 5 -6 -5z"/>
<path d="M3738 1879 c-21 -11 -38 -24 -38 -30 0 -6 12 -2 28 9 15 10 36 24 47
30 35 20 2 12 -37 -9z"/>
<path d="M3825 1890 c3 -5 8 -10 11 -10 2 0 4 5 4 10 0 6 -5 10 -11 10 -5 0
-7 -4 -4 -10z"/>
<path d="M4345 1890 c3 -5 10 -10 16 -10 5 0 9 5 9 10 0 6 -7 10 -16 10 -8 0
-12 -4 -9 -10z"/>
<path d="M1720 1850 c-8 -5 -11 -12 -8 -15 4 -4 17 0 30 9 24 17 5 23 -22 6z"/>
<path d="M1920 1851 c0 -9 43 -36 53 -33 9 3 9 -12 0 -21 -3 -4 -15 1 -25 10
-18 16 -18 16 -12 -2 6 -14 4 -16 -7 -10 -8 4 -11 4 -6 0 12 -13 45 -16 52 -4
5 6 12 6 23 -3 9 -7 4 5 -11 26 -15 23 -35 40 -47 41 -11 1 -20 -1 -20 -4z
m44 -17 c3 -8 2 -12 -4 -9 -6 3 -10 10 -10 16 0 14 7 11 14 -7z"/>
<path d="M4330 1840 c0 -5 5 -10 10 -10 6 0 10 5 10 10 0 6 -4 10 -10 10 -5 0
-10 -4 -10 -10z"/>
<path d="M3659 1832 c11 -8 11 -10 0 -14 -10 -3 -9 -6 3 -10 11 -5 15 -2 14
10 -2 9 -9 18 -17 20 -12 3 -12 2 0 -6z"/>
<path d="M3700 1810 c0 -5 5 -10 10 -10 6 0 10 5 10 10 0 6 -4 10 -10 10 -5 0
-10 -4 -10 -10z"/>
<path d="M3595 1799 c-15 -7 -11 -7 14 -3 23 4 31 3 27 -5 -5 -7 -1 -8 9 -4
13 5 14 7 3 14 -16 11 -27 10 -53 -2z"/>
<path d="M1816 1765 c4 -8 8 -15 10 -15 2 0 4 7 4 15 0 8 -4 15 -10 15 -5 0
-7 -7 -4 -15z"/>
<path d="M2014 1756 c3 -10 2 -24 -4 -31 -7 -9 -7 -15 -1 -19 5 -4 12 -2 16 4
3 5 11 10 16 10 6 0 7 -5 3 -12 -5 -7 -3 -8 5 -3 9 5 6 14 -11 34 -13 14 -25
28 -27 31 -2 3 -1 -3 3 -14z"/>
<path d="M3500 1761 c8 -5 11 -13 7 -17 -4 -4 -13 -2 -19 4 -14 14 -28 16 -28
3 0 -5 12 -14 28 -20 l27 -11 -30 6 c-59 12 -90 16 -85 11 3 -3 17 -8 30 -11
14 -2 39 -8 57 -11 30 -7 32 -6 30 21 -1 15 -9 29 -17 31 -13 4 -13 3 0 -6z"/>
<path d="M4255 1750 c-3 -5 -1 -10 4 -10 6 0 11 5 11 10 0 6 -2 10 -4 10 -3 0
-8 -4 -11 -10z"/>
<path d="M3388 1713 c7 -3 16 -2 19 1 4 3 -2 6 -13 5 -11 0 -14 -3 -6 -6z"/>
<path d="M2090 1686 c17 -20 20 -27 8 -23 -11 4 -15 1 -14 -11 2 -9 9 -17 16
-17 24 0 19 33 -9 57 l-26 23 25 -29z"/>
<path d="M2768 1682 c-31 -9 -66 -26 -78 -37 -22 -20 -62 -89 -56 -96 2 -2 6
-20 10 -39 4 -27 3 -31 -5 -20 -9 13 -10 12 -5 -3 3 -10 6 -21 6 -23 0 -3 4
-3 9 1 15 8 35 -35 23 -47 -7 -7 -10 -4 -9 7 1 10 -5 20 -13 23 -13 5 -13 3 0
-13 8 -10 14 -21 13 -24 -2 -3 7 -6 19 -6 14 0 27 -10 35 -25 11 -22 13 -23
13 -5 1 19 1 19 14 3 7 -10 18 -18 25 -18 6 0 11 -4 11 -9 0 -11 122 -58 165
-64 17 -2 38 -7 48 -12 17 -7 74 -2 114 11 17 5 17 4 -1 -10 -11 -9 -17 -18
-14 -21 5 -6 15 3 46 40 7 8 18 15 25 15 7 0 6 -4 -3 -10 -10 -7 -11 -10 -2
-10 7 0 17 11 22 24 5 13 14 27 19 31 21 12 42 66 45 111 1 24 -1 44 -5 44 -4
0 -12 15 -19 34 -10 30 -63 83 -114 113 -12 7 -16 12 -9 13 15 0 102 -67 128
-99 41 -51 60 -101 33 -85 -10 6 -10 4 0 -7 15 -17 16 -53 0 -43 -7 4 -8 3 -4
-4 8 -13 -44 -113 -54 -107 -4 2 -7 -2 -7 -10 0 -11 4 -12 13 -4 7 6 19 7 25
3 7 -4 9 -3 5 4 -3 6 2 13 12 16 22 7 62 75 62 105 0 32 17 25 25 -9 4 -16 11
-30 16 -30 6 0 7 6 3 12 -5 7 -9 30 -10 51 -2 40 -9 55 -20 44 -4 -4 -1 -13 6
-22 7 -9 11 -18 8 -20 -10 -10 -31 26 -32 54 -1 16 -4 27 -7 25 -4 -2 -15 8
-24 22 -9 15 -32 40 -51 56 -36 32 -44 58 -19 58 8 0 15 4 15 9 0 9 -43 7 -59
-3 -6 -4 -36 1 -67 10 -41 12 -58 13 -64 5 -5 -9 -14 -9 -34 -1 -40 15 -163
11 -228 -8z m416 -17 c-4 -8 -11 -12 -16 -9 -6 4 -5 10 3 15 19 12 19 11 13
-6z"/>
<path d="M3252 1691 c-11 -7 -10 -10 3 -15 22 -8 22 -8 22 9 0 17 -6 18 -25 6z"/>
<path d="M1887 1673 c-4 -3 -7 -13 -7 -22 1 -13 3 -13 11 2 11 19 8 33 -4 20z"/>
<path d="M3226 1654 c-8 -21 -8 -24 5 -24 5 0 7 5 3 11 -5 9 1 10 22 5 28 -7
28 -7 9 8 -26 20 -31 20 -39 0z"/>
<path d="M1904 1642 c-9 -13 -8 -21 3 -31 8 -7 17 -10 21 -6 4 4 2 10 -4 12
-7 2 -10 13 -7 23 7 25 1 25 -13 2z"/>
<path d="M2130 1635 c-11 -13 -10 -14 4 -9 9 3 16 10 16 15 0 13 -6 11 -20 -6z"/>
<path d="M2160 1620 c0 -5 5 -10 11 -10 5 0 7 5 4 10 -3 6 -8 10 -11 10 -2 0
-4 -4 -4 -10z"/>
<path d="M3255 1620 c5 -8 10 -21 11 -28 4 -21 11 -24 17 -8 3 8 -4 22 -15 33
-14 11 -18 13 -13 3z"/>
<path d="M2178 1603 c-10 -2 -18 -9 -18 -14 0 -6 8 -5 20 1 11 6 20 13 20 15
0 3 -1 4 -2 4 -2 -1 -11 -3 -20 -6z"/>
<path d="M3350 1600 c-8 -26 -7 -41 2 -32 6 6 8 16 5 24 -3 7 -6 11 -7 8z"/>
<path d="M2240 1570 c-8 -5 -10 -10 -5 -10 6 0 17 5 25 10 8 5 11 10 5 10 -5
0 -17 -5 -25 -10z"/>
<path d="M2615 1570 c-3 -5 -1 -10 4 -10 6 0 11 5 11 10 0 6 -2 10 -4 10 -3 0
-8 -4 -11 -10z"/>
<path d="M2175 1560 c27 -12 43 -12 25 0 -8 5 -22 9 -30 9 -10 0 -8 -3 5 -9z"/>
<path d="M2570 1549 c-16 -4 -19 -7 -7 -8 9 -1 17 -7 17 -13 0 -7 5 -5 11 5
14 23 10 26 -21 16z"/>
<path d="M3928 1533 c7 -3 16 -2 19 1 4 3 -2 6 -13 5 -11 0 -14 -3 -6 -6z"/>
<path d="M3980 1526 c0 -2 7 -6 15 -10 8 -3 15 -1 15 4 0 6 -7 10 -15 10 -8 0
-15 -2 -15 -4z"/>
<path d="M3930 1510 c-9 -6 -10 -10 -3 -10 6 0 15 5 18 10 8 12 4 12 -15 0z"/>
<path d="M3351 1494 c0 -11 3 -14 6 -6 3 7 2 16 -1 19 -3 4 -6 -2 -5 -13z"/>
<path d="M3968 1493 c7 -3 16 -2 19 1 4 3 -2 6 -13 5 -11 0 -14 -3 -6 -6z"/>
<path d="M2561 1474 c0 -11 3 -14 6 -6 3 7 2 16 -1 19 -3 4 -6 -2 -5 -13z"/>
<path d="M2405 1470 c-3 -5 1 -10 10 -10 9 0 13 5 10 10 -3 6 -8 10 -10 10 -2
0 -7 -4 -10 -10z"/>
<path d="M2115 1450 c-3 -5 1 -10 10 -10 9 0 13 5 10 10 -3 6 -8 10 -10 10 -2
0 -7 -4 -10 -10z"/>
<path d="M3840 1455 c0 -13 31 -36 41 -33 7 2 0 12 -15 21 -14 10 -26 15 -26
12z"/>
<path d="M2210 1416 c0 -2 7 -7 16 -10 8 -3 12 -2 9 4 -6 10 -25 14 -25 6z"/>
<path d="M2647 1389 c7 -7 15 -10 18 -7 3 3 -2 9 -12 12 -14 6 -15 5 -6 -5z"/>
<path d="M2328 1363 c7 -3 16 -2 19 1 4 3 -2 6 -13 5 -11 0 -14 -3 -6 -6z"/>
<path d="M3300 1360 c0 -5 5 -10 10 -10 6 0 10 5 10 10 0 6 -4 10 -10 10 -5 0
-10 -4 -10 -10z"/>
<path d="M3693 1362 c-6 -4 6 -7 27 -7 21 0 33 3 27 7 -7 4 -19 8 -27 8 -8 0
-20 -4 -27 -8z"/>
<path d="M3333 1330 c-6 -17 -7 -30 -2 -30 9 0 24 48 17 55 -2 2 -9 -9 -15
-25z"/>
<path d="M3300 1331 c-8 -6 -17 -8 -21 -5 -4 2 -11 -1 -15 -7 -4 -8 -3 -9 4
-5 7 4 12 3 12 -2 0 -17 29 -9 33 10 3 10 4 18 4 18 -1 0 -9 -4 -17 -9z"/>
<path d="M3680 1329 c0 -5 5 -7 10 -4 6 3 10 8 10 11 0 2 -4 4 -10 4 -5 0 -10
-5 -10 -11z"/>
<path d="M2385 1320 c3 -5 8 -10 11 -10 2 0 4 5 4 10 0 6 -5 10 -11 10 -5 0
-7 -4 -4 -10z"/>
<path d="M3524 1293 c15 -4 16 -7 5 -15 -11 -8 -10 -9 4 -4 10 3 26 6 35 7 25
1 -17 18 -43 17 -19 0 -19 -1 -1 -5z"/>
<path d="M2478 1283 c7 -3 16 -2 19 1 4 3 -2 6 -13 5 -11 0 -14 -3 -6 -6z"/>
<path d="M2532 1275 c-14 -16 -2 -21 14 -6 5 5 18 11 29 14 16 4 15 5 -5 5
-14 1 -31 -5 -38 -13z"/>
<path d="M2885 1265 c23 -8 85 -10 85 -3 0 4 -21 8 -47 7 -27 0 -43 -2 -38 -4z"/>
<path d="M2573 1253 c9 -2 23 -2 30 0 6 3 -1 5 -18 5 -16 0 -22 -2 -12 -5z"/>
<path d="M2971 1244 c-17 -20 -8 -29 12 -10 8 8 18 12 22 8 5 -4 5 -1 1 6 -9
16 -18 15 -35 -4z"/>
<path d="M3043 1253 c9 -2 23 -2 30 0 6 3 -1 5 -18 5 -16 0 -22 -2 -12 -5z"/>
<path d="M3020 1228 c0 -4 4 -8 9 -8 6 0 12 4 15 8 3 5 -1 9 -9 9 -8 0 -15 -4
-15 -9z"/>
<path d="M3066 1232 c-2 -4 4 -8 14 -8 10 0 16 4 14 8 -3 4 -9 8 -14 8 -5 0
-11 -4 -14 -8z"/>
<path d="M2937 1203 c18 -2 50 -2 70 0 21 2 7 4 -32 4 -38 0 -55 -2 -38 -4z"/>
<path d="M3090 1200 c-34 -7 -34 -7 -5 -8 17 0 39 3 50 8 24 10 4 10 -45 0z"/>
<path d="M3073 3234 c-39 -20 -113 -91 -113 -109 0 -24 59 -83 105 -105 40
-19 46 -20 73 -6 29 15 73 66 85 98 9 24 -78 138 -106 138 -7 0 -26 -8 -44
-16z m95 -58 c17 -24 32 -50 32 -58 0 -20 -65 -88 -84 -88 -26 0 -68 25 -103
62 l-33 34 38 36 c42 41 89 69 106 62 6 -3 26 -24 44 -48z"/>
</g>
</svg>
